<?xml version="1.0" encoding="utf-8"?>
<!-- Generator: Adobe Illustrator 17.0.2, SVG Export Plug-In . SVG Version: 6.00 Build 0)  -->
<!DOCTYPE svg PUBLIC "-//W3C//DTD SVG 1.1//EN" "http://www.w3.org/Graphics/SVG/1.1/DTD/svg11.dtd">
<svg version="1.1" id="Layer_1" xmlns="http://www.w3.org/2000/svg" xmlns:xlink="http://www.w3.org/1999/xlink" x="0px" y="0px"
	 width="360.237px" height="88.842px" viewBox="0 0 360.237 88.842" enable-background="new 0 0 360.237 88.842"
	 xml:space="preserve">
<g>
	<g>
		<polyline fill="none" stroke="#998D86" stroke-linecap="round" stroke-linejoin="round" points="343.777,6.252 347.194,4.279 
			336.456,12.748 351.246,4.209 327.374,20.182 353.497,5.1 318.958,26.449 354.575,5.886 		"/>
		<polyline fill="none" stroke="#998D86" stroke-linecap="round" stroke-linejoin="round" points="19.077,29.874 34.147,21.174 
			20.575,31.033 35.655,22.327 22.137,32.241 37.226,23.53 23.011,32.917 38.105,24.203 24.299,33.913 39.405,25.191 25.988,35.219 
			41.203,26.434 26.876,35.907 42.149,27.088 28.146,36.888 43.501,28.023 29.375,37.798 44.778,28.905 30.387,38.505 
			45.795,29.609 31.316,39.154 46.729,30.254 32.882,40.247 48.304,31.343 34.049,41.062 49.513,32.134 35.636,42.17 51.201,33.184 
			36.906,43.057 52.552,34.024 38.007,43.826 53.723,34.753 39.522,44.852 55.308,35.738 41.075,45.827 56.868,36.709 42.623,46.8 
			58.424,37.677 43.643,47.44 59.493,38.289 44.903,48.232 60.832,39.035 45.881,48.846 61.871,39.614 46.965,49.527 63.024,40.255 
			48.02,50.189 64.144,40.879 49.151,50.899 65.346,41.549 50.686,51.792 66.915,42.422 52.505,52.814 68.742,43.44 53.768,53.524 
			70.082,44.105 54.871,54.144 71.254,44.685 56.416,55.013 72.896,45.498 57.828,55.806 74.396,46.241 59.262,56.612 75.92,46.995 
			61.13,57.618 77.864,47.957 62.406,58.255 79.147,48.59 64.492,59.297 81.363,49.557 66.18,60.141 83.157,50.339 67.554,60.827 
			84.617,50.976 69.472,61.785 86.654,51.865 71.361,62.729 88.661,52.74 72.622,63.293 89.953,53.287 73.768,63.797 91.171,53.749 
			75.743,64.666 93.271,54.547 77.78,65.563 95.436,55.369 79.173,66.176 96.917,55.932 81.159,67.05 99.027,56.733 82.436,67.611 
			100.384,57.249 83.992,68.231 102.065,57.797 85.605,68.849 103.781,58.355 87.31,69.502 105.594,58.945 89.039,70.164 
			107.433,59.544 90.781,70.831 109.287,60.147 92.512,71.494 111.128,60.746 94.198,72.14 113.019,61.274 95.511,72.582 
			114.431,61.659 97.557,73.254 116.61,62.253 99.147,73.775 118.303,62.715 100.551,74.236 119.799,63.123 102.051,74.728 
			121.397,63.559 103.718,75.275 123.216,64.017 105.057,75.715 124.735,64.354 107.64,76.484 127.566,64.98 110.344,77.228 
			130.451,65.619 112.383,77.788 132.627,66.101 114.102,78.261 134.508,66.48 116.504,78.921 137.242,66.948 118.504,79.452 
			139.495,67.333 121.158,80.044 142.333,67.819 123.222,80.505 144.54,68.196 125.498,81.012 147.101,68.54 127.746,81.514 
			149.676,68.853 130.563,82.127 152.88,69.243 133.223,82.586 155.733,69.59 136.076,83.078 158.948,69.872 138.745,83.538 
			162.027,70.096 140.678,83.872 164.256,70.258 143.488,84.309 167.425,70.489 145.737,84.585 169.965,70.597 148.898,84.972 
			173.643,70.686 151.326,85.27 176.468,70.754 154.323,85.637 179.955,70.838 156.773,85.848 182.893,70.768 158.706,85.99 
			185.178,70.707 160.534,86.124 187.339,70.648 163.768,86.361 191.161,70.546 166.857,86.587 194.992,70.344 170.209,86.7 
			199.116,70.01 173.629,86.784 203.262,69.675 177.403,86.876 208.051,69.181 181.286,86.91 213.2,68.485 184.118,86.834 
			216.726,68.008 186.894,86.76 220.37,67.432 190.703,86.657 225.79,66.4 194.316,86.545 230.891,65.429 198.09,86.24 
			236.455,64.09 200.454,86.049 240.006,63.214 204.133,85.752 245.867,61.656 206.999,85.52 251.085,60.067 210.882,85.04 
			257.923,57.881 214.17,84.595 264.747,55.394 216.836,84.235 271.135,52.885 222.071,83.494 291.029,43.681 226.207,82.706 
			356.168,7.673 229.205,82.135 356.648,8.555 232.657,81.478 357.112,9.623 237.862,80.322 357.431,11.29 243.603,78.906 
			357.37,13.222 247.398,77.969 356.992,14.695 253.474,76.167 355.395,17.323 261.874,73.574 348.554,23.529 269.662,70.736 
			342.648,28.598 278.245,67.353 335.438,34.333 295.546,59.397 319.773,45.409 		"/>
		<polyline fill="none" stroke="#998D86" stroke-linecap="round" stroke-linejoin="round" points="30.499,17.999 50.333,6.548 
			33.578,17.999 50.891,8.003 37.092,17.999 51.145,9.885 40.742,17.999 50.829,12.175 44.753,17.777 49.073,15.283 		"/>
		<polyline fill="none" stroke="#998D86" stroke-linecap="round" stroke-linejoin="round" points="5.274,4.141 8.617,2.211 
			3.528,6.682 11.81,1.9 2.893,8.996 15.183,1.9 2.765,10.949 18.438,1.9 2.765,12.243 20.68,1.9 2.765,14.495 24.58,1.9 
			2.765,16.484 28.025,1.9 2.765,17.665 30.071,1.9 2.765,19.944 34.018,1.9 2.765,21.266 36.307,1.9 2.765,22.56 38.55,1.9 
			2.765,24.658 42.183,1.9 2.765,26.382 44.78,2.125 2.765,27.986 46.518,2.725 2.765,29.624 47.899,3.565 2.765,31.127 
			48.952,4.461 2.765,33.181 50.05,5.881 2.765,35.429 31.27,18.972 2.765,36.687 32.207,19.689 2.765,37.917 33.123,20.39 
			2.888,39.943 18.864,30.72 3.082,41.246 18.864,32.134 3.599,42.47 18.864,33.657 4.476,43.889 18.864,35.583 5.198,44.785 
			18.864,36.895 6.175,45.539 18.864,38.214 7.473,46.29 18.765,39.77 9.392,46.893 18.344,41.724 12.977,46.787 16.384,44.821 		
			"/>
	</g>
</g>
</svg>
